<svg id="icons" height="512" viewBox="0 0 60 60" width="512" xmlns="http://www.w3.org/2000/svg"><path d="m15.83 52.74 13.37 6.08a1.868 1.868 0 0 0 1.6 0l14.98-5.62c4.39-1.94 7.22-7.33 7.22-12.2v-27.79l-5.68-8.06c-5.05-.75-12.28-2.07-16.55-3.99a1.961 1.961 0 0 0 -1.54 0c-5.6 2.51-16.28 4.01-20.48 4.52a2.03 2.03 0 0 0 -1.75 2.02v34.3a11.892 11.892 0 0 0 .21 2.24z" fill="#2d629b"/><path d="m18.66 49.96 10.94 4.61a1.011 1.011 0 0 0 .8 0l13.79-5.1c2.92-1.29 4.81-5.22 4.81-8.47v-25.068l-2.48-6.782h-.01c-5.12-.78-11.61-2.01-16.17-3.77a.89.89 0 0 0 -.68 0c-5.06 1.96-12.49 3.26-17.8 4a1.007 1.007 0 0 0 -.86 1.01v30.13z" fill="#3778c6"/><path d="m51.58 13.03-11.9 13.37-3.81-1.53-1.84-4.22 13.14-12.11z" fill="#e3c84c"/><path d="m47.88 40.488a3.961 3.961 0 0 1 -5.66 0 4.127 4.127 0 0 1 0-5.758l-16.38-16.661a3.961 3.961 0 0 1 -5.66 0 4.127 4.127 0 0 1 0-5.758 3.959 3.959 0 0 1 5.66 0l22.04 22.419a4.127 4.127 0 0 1 0 5.758z" fill="#fde05e"/><path d="m9.737 58.4-7.66.6a1.008 1.008 0 0 1 -1.077-1.1l.589-7.792a1.028 1.028 0 0 1 .29-.641l27.9-27.383 8.485 8.631-27.897 27.385a.993.993 0 0 1 -.63.3z" fill="#e1efff"/><path d="m7.657 52.226a2.059 2.059 0 0 1 0-2.877l24.957-24.386 2.828 2.877-24.957 24.386a1.975 1.975 0 0 1 -2.828 0z" fill="#bfdbf0"/><ellipse cx="52.998" cy="7.105" fill="#fde05e" rx="5.996" ry="6.099"/><path d="m51.584 6.667a1 1 0 0 1 -.714-1.7 2.962 2.962 0 0 1 2.13-.895 2.958 2.958 0 0 1 2.127.894 1 1 0 1 1 -1.426 1.4.976.976 0 0 0 -.7-.3.97.97 0 0 0 -.7.3 1 1 0 0 1 -.717.301z" fill="#ffec9c"/><path d="m48.28 16.74-1.33 1.5-4.86-5.01 1.47-1.36z" fill="#c7af3e"/><path d="m43.81 21.76-1.33 1.5-5.36-5.45 1.47-1.36z" fill="#c7af3e"/><path d="m16 13.03v22.59l-2 1.96v-24.55a1 1 0 0 1 2 0z" fill="#4b95ff"/></svg>